<?xml version="1.0" ?><!DOCTYPE svg  PUBLIC '-//W3C//DTD SVG 1.1//EN'  'http://www.w3.org/Graphics/SVG/1.1/DTD/svg11.dtd'><svg enable-background="new 0 0 128 128" height="128px" id="Layer_1" version="1.1" viewBox="0 0 128 128" width="128px" xml:space="preserve" xmlns="http://www.w3.org/2000/svg" xmlns:xlink="http://www.w3.org/1999/xlink"><path d="M128,112c0,8.8-7.2,16-16,16H16c-8.8,0-16-7.2-16-16V16C0,7.2,7.2,0,16,0h96c8.8,0,16,7.2,16,16V112z" fill="#D95032"/><g><path d="M49.211,70.989h16.882c-1.939,7.841-7.911,12.214-17.033,12.214c-10.781,0-19.554-8.615-19.554-19.202   c0-10.59,8.772-19.204,19.554-19.204c4.715,0,9.268,1.671,12.821,4.706l8.116-9.161c-5.803-4.958-13.238-7.689-20.937-7.689   c-17.6,0-31.917,14.063-31.917,31.347c0,17.283,14.317,31.345,31.917,31.345c17.994,0,30.083-12.229,30.083-30.427v-6.073H49.211   V70.989z" fill="#FFFFFF"/><polygon fill="#FFFFFF" points="117.143,58.741 106.143,58.741 106.143,47.741 98.143,47.741 98.143,58.741 87.143,58.741    87.143,66.741 98.143,66.741 98.143,77.741 106.143,77.741 106.143,66.741 117.143,66.741  "/></g></svg>